<svg width="53" height="53" viewBox="0 0 53 53" fill="none" xmlns="http://www.w3.org/2000/svg">
<path d="M26.5 0L30.6682 4.20224L36.0729 1.78949L38.4416 7.21367L44.3529 6.91626L44.6022 12.8298L50.2218 14.6879L48.3181 20.2922L52.887 24.0549L49.0872 28.593L51.9884 33.7521L46.8059 36.6111L47.6475 42.4698L41.7821 43.2637L40.4505 49.0308L34.6944 47.6522L31.3694 52.5488L26.5 49.184L21.6306 52.5488L18.3056 47.6522L12.5495 49.0308L11.2179 43.2637L5.35254 42.4698L6.19412 36.6111L1.01162 33.7521L3.91277 28.593L0.113045 24.0549L4.68195 20.2922L2.77817 14.6879L8.39778 12.8298L8.64707 6.91626L14.5584 7.21367L16.9271 1.78949L22.3318 4.20224L26.5 0Z" fill="#F34141"/>
</svg>
